<svg width="40" height="40" viewBox="0 0 40 40" fill="none" xmlns="http://www.w3.org/2000/svg">
<circle cx="20" cy="20" r="19.25" stroke="#9CB244" stroke-width="1.5"/>
<path d="M13.75 15.625C13.75 14.7962 14.0792 14.0013 14.6653 13.4153C15.2513 12.8292 16.0462 12.5 16.875 12.5H23.125C23.9538 12.5 24.7487 12.8292 25.3347 13.4153C25.9208 14.0013 26.25 14.7962 26.25 15.625V17.5625C26.9559 17.7066 27.5902 18.0901 28.0458 18.6482C28.5014 19.2063 28.7501 19.9046 28.75 20.625V26.875C28.75 27.0408 28.6842 27.1997 28.5669 27.3169C28.4497 27.4342 28.2908 27.5 28.125 27.5C27.9592 27.5 27.8003 27.4342 27.6831 27.3169C27.5658 27.1997 27.5 27.0408 27.5 26.875V23.75H12.5V26.875C12.5 27.0408 12.4342 27.1997 12.3169 27.3169C12.1997 27.4342 12.0408 27.5 11.875 27.5C11.7092 27.5 11.5503 27.4342 11.4331 27.3169C11.3158 27.1997 11.25 27.0408 11.25 26.875V20.625C11.2499 19.9046 11.4986 19.2063 11.9542 18.6482C12.4098 18.0901 13.0441 17.7066 13.75 17.5625V15.625ZM12.5 22.5H27.5V20.625C27.5 20.1277 27.3025 19.6508 26.9508 19.2992C26.5992 18.9475 26.1223 18.75 25.625 18.75H14.375C13.8777 18.75 13.4008 18.9475 13.0492 19.2992C12.6975 19.6508 12.5 20.1277 12.5 20.625V22.5ZM25 15.625C25 15.1277 24.8025 14.6508 24.4508 14.2992C24.0992 13.9475 23.6223 13.75 23.125 13.75H16.875C16.3777 13.75 15.9008 13.9475 15.5492 14.2992C15.1975 14.6508 15 15.1277 15 15.625V17.5H16.25V16.875C16.25 16.7092 16.3158 16.5503 16.4331 16.4331C16.5503 16.3158 16.7092 16.25 16.875 16.25H18.75C18.9158 16.25 19.0747 16.3158 19.1919 16.4331C19.3092 16.5503 19.375 16.7092 19.375 16.875V17.5H20.625V16.875C20.625 16.7092 20.6908 16.5503 20.8081 16.4331C20.9253 16.3158 21.0842 16.25 21.25 16.25H23.125C23.2908 16.25 23.4497 16.3158 23.5669 16.4331C23.6842 16.5503 23.75 16.7092 23.75 16.875V17.5H25V15.625Z" fill="#9CB244"/>
</svg>
