<svg width="24" height="24" viewBox="0 0 24 24" fill="none" xmlns="http://www.w3.org/2000/svg">
<path d="M21.8606 8.81888C22.3014 8.38248 22.6512 7.86293 22.8897 7.29034C23.1282 6.71776 23.2507 6.10352 23.25 5.48325C23.25 2.88338 21.1391 0.77625 18.5366 0.775875H18.5348C17.2298 0.775875 16.0474 1.30613 15.1943 2.16263L17.9756 4.9395L17.349 5.57288C15.7834 4.49731 13.928 3.9227 12.0285 3.92513C10.1291 3.92256 8.27366 4.49705 6.708 5.5725L6.03638 4.89338L8.75363 2.14538C8.32113 1.70344 7.80471 1.35236 7.23467 1.11274C6.66464 0.873125 6.05248 0.749798 5.43413 0.75C2.847 0.75 0.75 2.87063 0.75 5.48663C0.75 6.79913 1.27725 7.98675 2.13038 8.84437L4.87613 6.0675L5.42925 6.62663C4.52616 7.51045 3.80901 8.566 3.32001 9.73115C2.831 10.8963 2.58004 12.1475 2.58188 13.4111C2.58188 15.294 3.1305 17.0475 4.0725 18.5235L3.28163 23.25H3.98138C4.41863 23.25 4.58025 22.7366 4.8645 22.098C5.11724 21.5248 5.36749 20.9506 5.61525 20.3752C7.29938 21.9412 9.552 22.8986 12.0285 22.8986C14.5046 22.8986 16.7569 21.9405 18.4418 20.3752C18.6895 20.9507 18.9398 21.5249 19.1929 22.098C19.4775 22.7366 19.6384 23.25 20.0756 23.25H20.7754L19.9856 18.5224C20.9607 16.9962 21.4777 15.2225 21.4755 13.4115C21.4774 12.1479 21.2264 10.8968 20.7374 9.73169C20.2484 8.5666 19.5312 7.51111 18.6281 6.62738L19.1441 6.10613L21.8606 8.81888V8.81888ZM19.3763 13.4115C19.3763 17.4866 16.0864 20.7908 12.0285 20.7908C7.97063 20.7908 4.68113 17.4866 4.68113 13.4115C4.68113 9.33713 7.97025 6.03338 12.0285 6.03338C16.086 6.03338 19.3763 9.33675 19.3763 13.4115" fill="white"/>
<path d="M12.728 12.2017V8.1416H11.3289V12.2017C11.1165 12.3245 10.9401 12.5009 10.8173 12.7133C10.6945 12.9256 10.6296 13.1665 10.6292 13.4119C10.6292 13.7235 10.733 14.0092 10.9037 14.2421L7.72217 17.4589L8.15717 17.8999L11.3735 14.6475C11.5693 14.7525 11.7905 14.8177 12.0287 14.8177C12.5454 14.8177 12.9913 14.5335 13.2343 14.115H15.5274V12.7099H13.2343C13.1127 12.4993 12.9382 12.3241 12.728 12.2017" fill="white"/>
</svg>
