<svg width="32" height="32" viewBox="0 0 32 32" fill="none" xmlns="http://www.w3.org/2000/svg">
<circle cx="16" cy="16" r="16" fill="#7F934C"/>
<path d="M15.9978 13.3321C14.5289 13.3321 13.3301 14.5309 13.3301 15.9999C13.3301 17.4688 14.5289 18.6676 15.9978 18.6676C17.4668 18.6676 18.6656 17.4688 18.6656 15.9999C18.6656 14.5309 17.4668 13.3321 15.9978 13.3321ZM23.9991 15.9999C23.9991 14.8951 24.0091 13.8004 23.9471 12.6977C23.885 11.4168 23.5928 10.2801 22.6562 9.34348C21.7176 8.40486 20.5829 8.11467 19.302 8.05263C18.1973 7.99059 17.1026 8.0006 15.9999 8.0006C14.8951 8.0006 13.8004 7.99059 12.6977 8.05263C11.4168 8.11467 10.2801 8.40686 9.34348 9.34348C8.40486 10.2821 8.11467 11.4168 8.05263 12.6977C7.99059 13.8024 8.0006 14.8971 8.0006 15.9999C8.0006 17.1026 7.99059 18.1993 8.05263 19.302C8.11467 20.5829 8.40686 21.7196 9.34348 22.6562C10.2821 23.5948 11.4168 23.885 12.6977 23.9471C13.8024 24.0091 14.8971 23.9991 15.9999 23.9991C17.1046 23.9991 18.1993 24.0091 19.302 23.9471C20.5829 23.885 21.7196 23.5928 22.6562 22.6562C23.5948 21.7176 23.885 20.5829 23.9471 19.302C24.0111 18.1993 23.9991 17.1046 23.9991 15.9999ZM15.9978 20.1045C13.7264 20.1045 11.8932 18.2713 11.8932 15.9999C11.8932 13.7284 13.7264 11.8952 15.9978 11.8952C18.2693 11.8952 20.1025 13.7284 20.1025 15.9999C20.1025 18.2713 18.2693 20.1045 15.9978 20.1045ZM20.2707 12.6857C19.7403 12.6857 19.312 12.2574 19.312 11.727C19.312 11.1967 19.7403 10.7684 20.2707 10.7684C20.801 10.7684 21.2293 11.1967 21.2293 11.727C21.2294 11.853 21.2048 11.9777 21.1566 12.0941C21.1085 12.2105 21.0379 12.3162 20.9489 12.4053C20.8598 12.4943 20.7541 12.5649 20.6377 12.613C20.5213 12.6611 20.3966 12.6858 20.2707 12.6857Z" fill="white"/>
</svg>
