<svg id="SvgjsSvg1048" width="288" height="288" xmlns="http://www.w3.org/2000/svg" version="1.1" xmlns:xlink="http://www.w3.org/1999/xlink" xmlns:svgjs="http://svgjs.com/svgjs"><defs id="SvgjsDefs1049"></defs><g id="SvgjsG1050"><svg xmlns="http://www.w3.org/2000/svg" fill-rule="evenodd" clip-rule="evenodd" image-rendering="optimizeQuality" shape-rendering="geometricPrecision" text-rendering="geometricPrecision" viewBox="0 0 1707 1707" width="288" height="288"><path fill="#616161" d="M638 759c-74 19-129 28-136 30-21 7-79-14-133-48-44-27-85-63-104-99-7-13-12-20-16-22-1 1-1 2-2 4-4 9-5 26-2 41 7 43 44 70 78 94 27 20 52 38 63 62l12 26 0 0c33 71 80 172 76 240-1 22-2 52 0 85 2 25 5 52 11 79 21 96 85 113 134 103 17-4 32-11 43-19 9-6 15-13 15-19 0-8-15-15-52-15-16 0-28-9-38-22-8-11-15-26-19-39l0-1-1-2c-8-21-10-28-8-36 2-6 6-8 11-12 4-2 10-6 18-13 18-18 32-44 43-69 11-25 19-51 24-69 18-70 96-83 164-78 7 1 15 1 22 2l-203-203zM998 608l0 0zm104 367l0 0zm120-145c23-39 35-75 41-108-60-14-109-35-151-59-40-23-72-49-99-77-9 14-15 22-15 22 0 1-1 2-2 3-29 20-61 38-95 55-26 12-52 24-79 34l279 279c0-1 1-2 1-3l0-1 0 0c1-1 2-2 2-3 55-52 93-99 118-142z" class="color00afef svgShape"></path><path fill="#616161" d="M1460 560c-6-8-19-16-42-21-51-13-146-109-151-114-2-2-3-4-3-7 4-78-6-72-7-70l-45 74c-1 3-4 5-7 5-72 9-143 92-180 143 26 27 58 53 97 76 40 23 87 43 144 57 6-25 24-41 44-52 23-12 48-17 67-20 26-3 56-19 74-37 6-6 10-13 12-19 1-5 0-10-3-15zM936 1057c3 11 6 23 9 36 23 78 63 181 77 212 18 42 50 57 78 56 17 0 33-6 43-14 9-6 13-15 10-22-4-10-19-20-50-28-4-1-7-4-8-8-3-22-5-43-7-62-1-7-1-13-2-19l-150-151z" class="color00afef svgShape"></path><path fill="#e68e34" d="M853 159c-191,0 -365,77 -491,203 -126,126 -203,300 -203,491 0,192 77,366 203,491 126,126 300,204 491,204 192,0 366,-78 491,-204 126,-125 204,-299 204,-491 0,-191 -78,-365 -204,-491 -125,-126 -299,-203 -491,-203zm-603 91c154,-154 368,-250 603,-250 236,0 449,96 604,250 154,154 250,368 250,603 0,236 -96,449 -250,604 -155,154 -368,250 -604,250 -235,0 -449,-96 -603,-250 -154,-155 -250,-368 -250,-604 0,-235 96,-449 250,-603z" class="color474748 svgShape"></path><rect width="132" height="135" fill="#e68e34" transform="matrix(-.7071 .7071 8.06827 8.06827 353.533 260.548)" class="color474748 svgShape"></rect></svg></g></svg>