<svg width="40" height="40" viewBox="0 0 40 40" fill="none" xmlns="http://www.w3.org/2000/svg">
<circle cx="20" cy="20" r="19.25" stroke="#9CB244" stroke-width="1.5"/>
<path fill-rule="evenodd" clip-rule="evenodd" d="M28.9963 12.0591C28.7899 12.1327 28.6289 12.2777 28.5513 12.4597C28.5019 12.5758 28.492 13.8116 28.4922 19.9016C28.4924 24.6601 28.5076 27.2587 28.5359 27.3607C28.6044 27.6071 28.7574 27.8014 28.9683 27.9097C29.1373 27.9965 29.2142 28.0078 29.5589 27.9962C29.9261 27.9839 29.9674 27.9732 30.1214 27.8506C30.2128 27.7779 30.3313 27.6326 30.3849 27.5278L30.4822 27.3372V24.2991V21.2609L30.6078 20.7712C31.207 18.4351 31.2785 16.4799 30.8431 14.3324C30.5959 13.1134 30.2075 12.2768 29.7878 12.0598C29.6342 11.9804 29.2181 11.98 28.9963 12.0591ZM10.292 12.3636C10.2194 12.3941 10.1469 12.4531 10.1309 12.4947C10.1043 12.5641 10.02 15.2208 10.0181 16.0522L10.0172 16.4092H9.82363C9.63663 16.4092 9.63066 16.4051 9.64905 16.2902C9.65952 16.2248 9.70144 15.3603 9.74229 14.3692C9.81221 12.6716 9.81225 12.5606 9.74281 12.4546C9.68474 12.366 9.63408 12.3421 9.50376 12.3421C9.31382 12.3421 9.2073 12.4341 9.17463 12.6262C9.16273 12.6961 9.1122 13.672 9.06236 14.795C8.96466 16.9947 8.96816 17.0827 9.17143 17.5211C9.26926 17.7321 9.59055 18.0964 9.8511 18.2916L9.96615 18.3778L9.90752 21.9256C9.87529 23.877 9.84781 25.9233 9.84652 26.473C9.84427 27.4449 9.8469 27.4766 9.94322 27.6196C9.99764 27.7005 10.1291 27.8153 10.2353 27.8748C10.4034 27.969 10.4812 27.9829 10.8393 27.9829C11.1974 27.9829 11.2752 27.969 11.4433 27.8748C11.5495 27.8153 11.681 27.7005 11.7354 27.6196C11.8319 27.4764 11.8343 27.4461 11.8317 26.4514C11.8302 25.8898 11.8032 23.8434 11.7718 21.904C11.715 18.4035 11.7152 18.3773 11.8005 18.3129C12.2521 17.9716 12.4863 17.6588 12.6202 17.2181L12.7099 16.9227L12.6168 14.8163C12.5655 13.6578 12.5131 12.6612 12.5002 12.6017C12.4621 12.4262 12.3567 12.3421 12.1749 12.3421C12.0445 12.3421 11.9939 12.366 11.9358 12.4546C11.8664 12.5606 11.8664 12.6716 11.9363 14.3692C11.9772 15.3603 12.0191 16.2248 12.0296 16.2902C12.048 16.4051 12.042 16.4092 11.855 16.4092H11.6614L11.6601 16.0306C11.6563 14.9127 11.5725 12.5484 11.5341 12.4767C11.4773 12.3705 11.2763 12.301 11.1553 12.3458C10.9242 12.4313 10.9222 12.4504 10.9683 14.1842C10.9916 15.0629 11.0111 15.923 11.0115 16.0955L11.0124 16.4092H10.8393H10.6662L10.6668 16.1388C10.6671 15.9901 10.6868 15.1287 10.7107 14.2246C10.7517 12.6718 10.7498 12.5751 10.6764 12.4768C10.5692 12.3332 10.4486 12.2977 10.292 12.3636ZM19.6007 12.4107C19.5294 12.4209 19.3152 12.4499 19.1248 12.4751C17.6548 12.6701 16.1731 13.4142 15.0818 14.5054C13.2125 16.3748 12.5107 18.9574 13.1707 21.5387C13.8029 24.0117 15.8675 26.0644 18.3679 26.7062C19.5386 27.0067 20.9292 27.0048 22.0453 26.7011C23.3365 26.3497 24.4045 25.7337 25.3344 24.8037C26.7329 23.4053 27.4621 21.6383 27.4597 19.6542C27.4573 17.63 26.6861 15.828 25.2192 14.4189C24.1629 13.4042 22.8259 12.7263 21.4179 12.4914C21.033 12.4272 19.8519 12.3747 19.6007 12.4107ZM29.5836 12.7207C29.873 13.0493 30.2084 14.2027 30.3796 15.4573C30.4823 16.2102 30.4832 17.7931 30.3813 18.5292C30.3072 19.0654 30.0517 20.3898 29.9616 20.705L29.9148 20.8689L29.5387 20.8564L29.1626 20.844L29.1516 16.7796C29.1428 13.5568 29.1518 12.7081 29.1949 12.6808C29.2911 12.6197 29.5149 12.6427 29.5836 12.7207ZM21.3314 13.1389C23.432 13.5204 25.2237 14.8627 26.1343 16.7369C26.6109 17.7179 26.8091 18.5821 26.8086 19.6764C26.8081 20.5255 26.6921 21.1963 26.4162 21.9447C25.678 23.9466 23.9988 25.4892 21.9443 26.0529C20.8962 26.3404 19.5904 26.3512 18.5475 26.081C16.4786 25.5448 14.7263 23.9697 13.9972 21.9905C13.4799 20.5861 13.4427 18.9882 13.8955 17.6206C14.7124 15.1538 16.8667 13.3919 19.4493 13.0787C19.8753 13.0271 20.8951 13.0597 21.3314 13.1389ZM19.7089 14.3799C17.3746 14.5763 15.3811 16.4112 14.968 18.7436C14.932 18.947 14.9021 19.3667 14.9015 19.6765C14.8991 21.1128 15.4358 22.4 16.4618 23.4183C17.9591 24.9045 20.1026 25.3684 22.0704 24.6322C24.1875 23.8401 25.5973 21.7089 25.4958 19.4541C25.4356 18.1174 24.951 16.9731 24.0355 16.006C22.9344 14.8427 21.3382 14.2428 19.7089 14.3799ZM20.7676 15.0463C22.2429 15.1866 23.6651 16.1967 24.362 17.599C25.1018 19.0879 25.0019 20.8199 24.0959 22.2135C23.829 22.6238 23.1515 23.3003 22.7378 23.5693C21.5599 24.3354 20.0261 24.5303 18.7138 24.0807C17.3901 23.6271 16.3083 22.5764 15.8267 21.2767C15.584 20.6218 15.4862 19.62 15.5975 18.9296C15.9321 16.8537 17.6861 15.2078 19.7522 15.0309C20.1572 14.9962 20.2561 14.9977 20.7676 15.0463ZM11.9642 17.1182C11.9642 17.1512 11.9009 17.2727 11.8236 17.3883C11.5738 17.7617 11.0965 17.9719 10.6506 17.905C10.3714 17.8632 10.0201 17.635 9.855 17.3883C9.77764 17.2727 9.71438 17.1512 9.71438 17.1182C9.71438 17.0686 9.90895 17.0582 10.8393 17.0582C11.7697 17.0582 11.9642 17.0686 11.9642 17.1182ZM11.0722 19.0593C11.0859 19.327 11.1197 21.2771 11.1472 23.393C11.1954 27.1009 11.1944 27.242 11.1182 27.2978C11.0163 27.3722 10.6626 27.3725 10.561 27.2981C10.4854 27.2429 10.4843 27.0923 10.532 23.3933C10.5593 21.2773 10.5929 19.327 10.6066 19.0593L10.6315 18.5725H10.8393H11.0471L11.0722 19.0593ZM29.8332 24.3832C29.8332 26.5566 29.8207 27.2643 29.7813 27.3037C29.7528 27.3322 29.6273 27.3556 29.5026 27.3556C29.1153 27.3556 29.141 27.57 29.141 24.3389V21.5146H29.4871H29.8332V24.3832Z" fill="#9CB244"/>
</svg>
