<svg width="40" height="40" viewBox="0 0 40 40" fill="none" xmlns="http://www.w3.org/2000/svg">
<circle cx="20" cy="20" r="19.25" stroke="#9CB244" stroke-width="1.5"/>
<path d="M10.3999 15.1999C10.3999 14.5634 10.6528 13.953 11.1028 13.5029C11.5529 13.0528 12.1634 12.7999 12.7999 12.7999H27.1999C27.8364 12.7999 28.4469 13.0528 28.897 13.5029C29.347 13.953 29.5999 14.5634 29.5999 15.1999V23.5999C29.5999 24.2364 29.347 24.8469 28.897 25.297C28.4469 25.7471 27.8364 25.9999 27.1999 25.9999H12.7999C12.1634 25.9999 11.5529 25.7471 11.1028 25.297C10.6528 24.8469 10.3999 24.2364 10.3999 23.5999V15.1999ZM12.7999 13.9999C12.4816 13.9999 12.1764 14.1264 11.9514 14.3514C11.7263 14.5764 11.5999 14.8817 11.5999 15.1999V23.5999C11.5999 23.9182 11.7263 24.2234 11.9514 24.4485C12.1764 24.6735 12.4816 24.7999 12.7999 24.7999H27.1999C27.5182 24.7999 27.8234 24.6735 28.0484 24.4485C28.2735 24.2234 28.3999 23.9182 28.3999 23.5999V15.1999C28.3999 14.8817 28.2735 14.5764 28.0484 14.3514C27.8234 14.1264 27.5182 13.9999 27.1999 13.9999H12.7999ZM13.9999 27.7999C13.9999 27.6408 14.0631 27.4882 14.1756 27.3757C14.2882 27.2631 14.4408 27.1999 14.5999 27.1999H25.3999C25.559 27.1999 25.7116 27.2631 25.8242 27.3757C25.9367 27.4882 25.9999 27.6408 25.9999 27.7999C25.9999 27.9591 25.9367 28.1117 25.8242 28.2242C25.7116 28.3367 25.559 28.3999 25.3999 28.3999H14.5999C14.4408 28.3999 14.2882 28.3367 14.1756 28.2242C14.0631 28.1117 13.9999 27.9591 13.9999 27.7999Z" fill="#9CB244"/>
</svg>
