<svg width="32" height="32" viewBox="0 0 32 32" fill="none" xmlns="http://www.w3.org/2000/svg">
<circle cx="16" cy="16" r="16" fill="#7F934C"/>
<path d="M21.8752 10.0916C21.1112 9.31982 20.2011 8.70794 19.1982 8.2916C18.1952 7.87525 17.1194 7.66277 16.0335 7.66655C11.4835 7.66655 7.77516 11.3749 7.77516 15.9249C7.77516 17.3832 8.1585 18.7999 8.87516 20.0499L7.7085 24.3332L12.0835 23.1832C13.2918 23.8416 14.6502 24.1916 16.0335 24.1916C20.5835 24.1916 24.2918 20.4832 24.2918 15.9332C24.2918 13.7249 23.4335 11.6499 21.8752 10.0916ZM16.0335 22.7916C14.8002 22.7916 13.5918 22.4582 12.5335 21.8332L12.2835 21.6832L9.6835 22.3666L10.3752 19.8332L10.2085 19.5749C9.52328 18.4807 9.15945 17.2159 9.1585 15.9249C9.1585 12.1416 12.2418 9.05822 16.0252 9.05822C17.8585 9.05822 19.5835 9.77489 20.8752 11.0749C21.5147 11.7115 22.0216 12.4688 22.3663 13.3027C22.7111 14.1367 22.8869 15.0308 22.8835 15.9332C22.9002 19.7166 19.8168 22.7916 16.0335 22.7916ZM19.8002 17.6582C19.5918 17.5582 18.5752 17.0582 18.3918 16.9832C18.2002 16.9166 18.0668 16.8832 17.9252 17.0832C17.7835 17.2916 17.3918 17.7582 17.2752 17.8916C17.1585 18.0332 17.0335 18.0499 16.8252 17.9416C16.6168 17.8416 15.9502 17.6166 15.1668 16.9166C14.5502 16.3666 14.1418 15.6916 14.0168 15.4832C13.9002 15.2749 14.0002 15.1666 14.1085 15.0582C14.2002 14.9666 14.3168 14.8166 14.4168 14.6999C14.5168 14.5832 14.5585 14.4916 14.6252 14.3582C14.6918 14.2166 14.6585 14.0999 14.6085 13.9999C14.5585 13.8999 14.1418 12.8832 13.9752 12.4666C13.8085 12.0666 13.6335 12.1166 13.5085 12.1082H13.1085C12.9668 12.1082 12.7502 12.1582 12.5585 12.3666C12.3752 12.5749 11.8418 13.0749 11.8418 14.0916C11.8418 15.1082 12.5835 16.0916 12.6835 16.2249C12.7835 16.3666 14.1418 18.4499 16.2085 19.3416C16.7002 19.5582 17.0835 19.6832 17.3835 19.7749C17.8752 19.9332 18.3252 19.9082 18.6835 19.8582C19.0835 19.7999 19.9085 19.3582 20.0752 18.8749C20.2502 18.3916 20.2502 17.9832 20.1918 17.8916C20.1335 17.7999 20.0085 17.7582 19.8002 17.6582Z" fill="white"/>
</svg>
